<svg width="21" height="21" viewBox="0 0 21 21" fill="none" xmlns="http://www.w3.org/2000/svg">
<g id="Social Media Logo">
<path id="Subtract" fill-rule="evenodd" clip-rule="evenodd" d="M10.0673 18.8758C14.9324 18.8758 18.8763 14.9319 18.8763 10.0668C18.8763 5.20173 14.9324 1.25781 10.0673 1.25781C5.20222 1.25781 1.2583 5.20173 1.2583 10.0668C1.2583 14.4086 4.39938 18.0167 8.53306 18.7427V12.7608H6.29201V10.2745H8.53306V8.37953C8.53306 6.22416 9.85011 5.0331 11.867 5.0331C12.8324 5.0331 13.8426 5.20109 13.8426 5.20109V7.31781H12.729C11.6326 7.31781 11.2912 7.9814 11.2912 8.66177V10.2745H13.7391L13.3478 12.7608H11.2912V18.7717C10.8664 18.8367 10.4323 18.8718 9.99045 18.8755C10.016 18.8757 10.0417 18.8758 10.0673 18.8758Z" fill="#31361E"/>
</g>
</svg>
