<svg width="21" height="21" viewBox="0 0 21 21" fill="none" xmlns="http://www.w3.org/2000/svg">
<g id="Social Media Logo">
<g id="instagram">
<path d="M16.2399 5.30928C16.2399 6.02601 15.6588 6.60703 14.9421 6.60703C14.2254 6.60703 13.6443 6.02601 13.6443 5.30928C13.6443 4.59255 14.2254 4.01152 14.9421 4.01152C15.6588 4.01152 16.2399 4.59255 16.2399 5.30928Z" fill="#31361E"/>
<path fill-rule="evenodd" clip-rule="evenodd" d="M10.1837 14.3935C12.5728 14.3935 14.5095 12.4568 14.5095 10.0677C14.5095 7.67861 12.5728 5.74186 10.1837 5.74186C7.79457 5.74186 5.85783 7.67861 5.85783 10.0677C5.85783 12.4568 7.79457 14.3935 10.1837 14.3935ZM10.1837 12.6632C11.6171 12.6632 12.7792 11.5012 12.7792 10.0677C12.7792 8.63425 11.6171 7.4722 10.1837 7.4722C8.75021 7.4722 7.58816 8.63425 7.58816 10.0677C7.58816 11.5012 8.75021 12.6632 10.1837 12.6632Z" fill="#31361E"/>
<path fill-rule="evenodd" clip-rule="evenodd" d="M1.53198 9.72164C1.53198 6.8144 1.53198 5.36078 2.09777 4.25036C2.59545 3.27361 3.38957 2.47948 4.36633 1.9818C5.47674 1.41602 6.93036 1.41602 9.8376 1.41602H10.5297C13.437 1.41602 14.8906 1.41602 16.001 1.9818C16.9778 2.47948 17.7719 3.27361 18.2696 4.25036C18.8354 5.36078 18.8354 6.8144 18.8354 9.72164V10.4138C18.8354 13.321 18.8354 14.7746 18.2696 15.8851C17.7719 16.8618 16.9778 17.6559 16.001 18.1536C14.8906 18.7194 13.437 18.7194 10.5297 18.7194H9.8376C6.93036 18.7194 5.47674 18.7194 4.36633 18.1536C3.38957 17.6559 2.59545 16.8618 2.09777 15.8851C1.53198 14.7746 1.53198 13.321 1.53198 10.4138V9.72164ZM9.8376 3.14635H10.5297C12.0119 3.14635 13.0195 3.1477 13.7983 3.21133C14.5569 3.27331 14.9448 3.38565 15.2155 3.52354C15.8666 3.85533 16.396 4.38475 16.7278 5.03592C16.8657 5.30654 16.9781 5.69449 17.04 6.45309C17.1037 7.2319 17.105 8.23947 17.105 9.72164V10.4138C17.105 11.8959 17.1037 12.9035 17.04 13.6823C16.9781 14.4409 16.8657 14.8289 16.7278 15.0995C16.396 15.7507 15.8666 16.2801 15.2155 16.6119C14.9448 16.7498 14.5569 16.8621 13.7983 16.9241C13.0195 16.9877 12.0119 16.9891 10.5297 16.9891H9.8376C8.35543 16.9891 7.34787 16.9877 6.56906 16.9241C5.81045 16.8621 5.42251 16.7498 5.15188 16.6119C4.50071 16.2801 3.9713 15.7507 3.63951 15.0995C3.50162 14.8289 3.38928 14.4409 3.3273 13.6823C3.26367 12.9035 3.26232 11.8959 3.26232 10.4138V9.72164C3.26232 8.23947 3.26367 7.2319 3.3273 6.45309C3.38928 5.69449 3.50162 5.30654 3.63951 5.03592C3.9713 4.38475 4.50071 3.85533 5.15188 3.52354C5.42251 3.38565 5.81045 3.27331 6.56906 3.21133C7.34787 3.1477 8.35543 3.14635 9.8376 3.14635Z" fill="#31361E"/>
</g>
</g>
</svg>
