<svg width="21" height="21" viewBox="0 0 21 21" fill="none" xmlns="http://www.w3.org/2000/svg">
<g id="Social Media Logo">
<path id="twitter" d="M7.9758 17.6184C5.94029 17.6184 4.04285 17.0264 2.4458 16.0049C3.80175 16.0926 6.1947 15.8825 7.68311 14.4628C5.44405 14.36 4.43428 12.6428 4.30257 11.9089C4.49282 11.9823 5.40015 12.0703 5.91235 11.8649C3.3367 11.2191 2.94158 8.95873 3.02938 8.2689C3.51232 8.60648 4.33184 8.7239 4.6538 8.69454C2.25376 6.97729 3.11719 4.39406 3.54158 3.83632C5.26394 6.2225 7.84521 7.56267 11.0386 7.63721C10.9784 7.37314 10.9466 7.09821 10.9466 6.81583C10.9466 4.78931 12.5846 3.14648 14.6052 3.14648C15.6609 3.14648 16.6122 3.59496 17.28 4.31232C17.9854 4.147 19.0472 3.76001 19.5662 3.42535C19.3046 4.36471 18.4901 5.14832 17.9974 5.43876C17.9934 5.42883 18.0015 5.44864 17.9974 5.43876C18.4302 5.37329 19.6012 5.14825 20.0638 4.83439C19.835 5.3621 18.9715 6.23953 18.2628 6.73075C18.3947 12.5457 13.9456 17.6184 7.9758 17.6184Z" fill="#31361E"/>
</g>
</svg>
