<svg width="120" height="135" viewBox="0 0 120 135" fill="none" xmlns="http://www.w3.org/2000/svg">
<path d="M101.652 50.6904C105.616 43.8258 103.264 35.0481 96.399 31.0849C89.5344 27.1216 80.7567 29.4736 76.7934 36.3382C72.8302 43.2027 75.1821 51.9804 82.0467 55.9437C88.9113 59.907 97.689 57.555 101.652 50.6904Z" fill="#D17E2C"/>
<path d="M91.7037 55.9872C98.9163 54.0545 103.197 46.6408 101.264 39.4282C99.3314 32.2155 91.9177 27.9352 84.705 29.8679C77.4924 31.8005 73.2121 39.2142 75.1447 46.4268C77.0773 53.6395 84.491 57.9198 91.7037 55.9872Z" fill="#E18D2A"/>
<path d="M99.6249 49.5208C103.267 43.213 101.105 35.1472 94.7977 31.5054C88.4898 27.8635 80.424 30.0248 76.7822 36.3326C73.1404 42.6404 75.3016 50.7062 81.6094 54.348C87.9173 57.9898 95.9831 55.8286 99.6249 49.5208Z" fill="#FFD503"/>
<path d="M99.7419 41.7142C99.0711 35.3428 93.3623 30.7216 86.9909 31.3924C80.6196 32.0631 75.9983 37.7719 76.6691 44.1433C77.3399 50.5147 83.0487 55.1359 89.4201 54.4651C95.7914 53.7943 100.413 48.0856 99.7419 41.7142Z" fill="#E18D2A"/>
<path d="M99.3703 41.7188C98.7036 35.552 93.1641 31.0933 86.9973 31.76C80.8306 32.4266 76.3719 37.9662 77.0385 44.1329C77.7052 50.2997 83.2447 54.7584 89.4115 54.0917C95.5782 53.4251 100.037 47.8855 99.3703 41.7188Z" fill="#F5A800"/>
<g style="mix-blend-mode:multiply" opacity="0.3">
<path d="M99.0521 40.0203C99.4846 41.6351 99.551 43.3262 99.2467 44.97C98.9424 46.6138 98.2749 48.169 97.293 49.522C96.311 50.875 95.0395 51.9918 93.571 52.7908C92.1025 53.5897 90.4742 54.0508 88.8048 54.1403C87.1354 54.2298 85.4671 53.9455 83.9216 53.3082C82.3761 52.6708 80.9924 51.6964 79.8714 50.4562C78.7504 49.2159 77.9205 47.7411 77.4421 46.1392C76.9637 44.5373 76.849 42.8489 77.1063 41.197C78.472 42.8908 80.3003 44.1516 82.3689 44.8261C84.4376 45.5006 86.6576 45.5599 88.7593 44.9968C90.861 44.4336 92.7539 43.2723 94.2081 41.6538C95.6623 40.0353 96.6153 38.0294 96.9512 35.8796C97.9336 37.0976 98.6493 38.5082 99.0521 40.0203Z" fill="#E49D01"/>
</g>
<g style="mix-blend-mode:screen">
<path d="M79.1232 36.9203C79.4544 36.2874 80.028 35.9368 80.4146 36.1336C80.8012 36.3305 80.8384 37.0049 80.5099 37.6353C80.1814 38.2658 79.6046 38.6173 79.2181 38.4205C78.8315 38.2236 78.7931 37.5446 79.1232 36.9203Z" fill="#999999"/>
<path d="M80.3138 35.2634C80.3583 35.1789 80.4267 35.1094 80.5105 35.0638C80.5943 35.0181 80.6898 34.9983 80.7848 35.0067C80.8799 35.0152 80.9704 35.0516 81.0448 35.1114C81.1192 35.1712 81.1743 35.2516 81.2031 35.3426C81.2319 35.4336 81.2331 35.5311 81.2066 35.6228C81.1801 35.7145 81.127 35.7963 81.0541 35.8579C80.9812 35.9195 80.8917 35.9582 80.7969 35.969C80.702 35.9799 80.6061 35.9624 80.5212 35.9189C80.4643 35.8897 80.4138 35.8495 80.3725 35.8007C80.3312 35.7519 80.3 35.6953 80.2808 35.6344C80.2615 35.5734 80.2545 35.5092 80.2601 35.4456C80.2658 35.3819 80.2841 35.32 80.3138 35.2634Z" fill="#999999"/>
</g>
<g style="mix-blend-mode:multiply" opacity="0.3">
<path d="M96.1837 48.5885C96.5148 47.9556 97.0889 47.6065 97.4673 47.8039C97.8457 48.0013 97.891 48.6751 97.5626 49.3056C97.2341 49.9361 96.6573 50.2876 96.2785 50.0887C95.8997 49.8897 95.8552 49.219 96.1837 48.5885Z" fill="#F6BE4F"/>
<path d="M97.3738 46.9333C97.4182 46.8488 97.4866 46.7794 97.5704 46.7337C97.6543 46.688 97.7497 46.6682 97.8448 46.6767C97.9399 46.6851 98.0303 46.7215 98.1047 46.7813C98.1791 46.8411 98.2342 46.9215 98.263 47.0125C98.2918 47.1035 98.293 47.201 98.2665 47.2927C98.24 47.3844 98.1869 47.4662 98.114 47.5278C98.0411 47.5895 97.9516 47.6281 97.8568 47.639C97.762 47.6498 97.666 47.6323 97.5811 47.5888C97.5242 47.5596 97.4737 47.5194 97.4324 47.4706C97.3912 47.4218 97.36 47.3652 97.3407 47.3043C97.3214 47.2433 97.3144 47.1792 97.3201 47.1155C97.3258 47.0518 97.344 46.9899 97.3738 46.9333Z" fill="#F6BE4F"/>
</g>
<path d="M49.9529 22.8386C49.9529 16.532 55.0654 11.4195 61.3721 11.4195C67.6787 11.4195 72.7913 16.532 72.7913 22.8386C72.7913 29.1453 67.6787 34.2578 61.3721 34.2578C55.0654 34.2578 49.9529 29.1453 49.9529 22.8386Z" fill="#D17E2C"/>
<path d="M54.7009 30.4444C50.4999 26.2435 50.4999 19.4323 54.7009 15.2313C58.9019 11.0304 65.713 11.0304 69.914 15.2313C74.1149 19.4323 74.1149 26.2435 69.914 30.4444C65.713 34.6454 58.9019 34.6454 54.7009 30.4444Z" fill="#E18D2A"/>
<path d="M51.8151 22.839C51.8151 17.0439 56.513 12.346 62.3081 12.346C68.1033 12.346 72.8011 17.0439 72.8011 22.839C72.8011 28.6341 68.1033 33.332 62.3081 33.332C56.513 33.332 51.8151 28.6341 51.8151 22.839Z" fill="#FFD503"/>
<path d="M54.8385 17.4121C57.8354 13.2888 63.6074 12.3756 67.7307 15.3724C71.8539 18.3693 72.7671 24.1413 69.7703 28.2646C66.7734 32.3879 61.0014 33.301 56.8781 30.3042C52.7548 27.3074 51.8417 21.5353 54.8385 17.4121Z" fill="#E18D2A"/>
<path d="M55.0938 17.5652C58.0064 13.5812 63.5972 12.7127 67.5811 15.6253C71.565 18.5379 72.4335 24.1287 69.5209 28.1126C66.6083 32.0966 61.0176 32.965 57.0336 30.0524C53.0497 27.1398 52.1812 21.5491 55.0938 17.5652Z" fill="#F5A800"/>
<g style="mix-blend-mode:multiply" opacity="0.3">
<path d="M55.988 16.5206C55.0476 17.4613 54.3291 18.6 53.8848 19.8537C53.4406 21.1075 53.2818 22.4446 53.4202 23.7675C53.5585 25.0904 53.9904 26.3658 54.6844 27.5005C55.3784 28.6352 56.317 29.6007 57.4316 30.3265C58.5463 31.0522 59.8089 31.52 61.1274 31.6957C62.4459 31.8713 63.7869 31.7504 65.0527 31.3418C66.3185 30.9332 67.4771 30.2471 68.444 29.3336C69.4108 28.4202 70.1616 27.3024 70.6415 26.0619C69.0266 26.6856 67.2653 26.827 65.5716 26.4689C63.8778 26.1107 62.3246 25.2684 61.1005 24.0443C59.8763 22.8202 59.034 21.2669 58.6759 19.5732C58.3177 17.8795 58.4591 16.1182 59.0829 14.5033C57.9214 14.9517 56.8671 15.6389 55.988 16.5206Z" fill="#E49D01"/>
</g>
<g style="mix-blend-mode:screen">
<path d="M70.9542 22.3105C70.9778 21.7427 70.722 21.2728 70.3773 21.2547C70.0326 21.2365 69.7387 21.6864 69.7142 22.2515C69.6898 22.8166 69.9474 23.2883 70.292 23.3064C70.6367 23.3246 70.9333 22.8719 70.9542 22.3105Z" fill="#999999"/>
<path d="M70.7949 20.6968C70.7979 20.6209 70.7784 20.5459 70.7388 20.4811C70.6992 20.4162 70.6413 20.3646 70.5724 20.3326C70.5036 20.3006 70.4267 20.2897 70.3517 20.3013C70.2766 20.3129 70.2067 20.3464 70.1506 20.3977C70.0946 20.4489 70.055 20.5156 70.0368 20.5893C70.0185 20.6631 70.0226 20.7405 70.0483 20.812C70.074 20.8835 70.1203 20.9457 70.1813 20.9909C70.2424 21.0361 70.3154 21.0622 70.3913 21.066C70.4421 21.0685 70.4929 21.0609 70.5407 21.0437C70.5886 21.0265 70.6325 20.9999 70.6701 20.9656C70.7076 20.9313 70.738 20.8898 70.7594 20.8437C70.7808 20.7976 70.7929 20.7477 70.7949 20.6968Z" fill="#999999"/>
</g>
<g style="mix-blend-mode:multiply" opacity="0.3">
<path d="M54.9828 22.8238C55.0064 22.256 54.7497 21.787 54.4105 21.7725C54.0712 21.758 53.7719 22.2043 53.7474 22.7694C53.7229 23.3345 53.9805 23.8061 54.3207 23.8197C54.6608 23.8333 54.9583 23.3889 54.9828 22.8238Z" fill="#F6BE4F"/>
<path d="M54.8238 21.2085C54.8268 21.1327 54.8073 21.0576 54.7677 20.9928C54.7281 20.928 54.6702 20.8763 54.6014 20.8443C54.5325 20.8123 54.4557 20.8015 54.3806 20.813C54.3056 20.8246 54.2356 20.8581 54.1796 20.9094C54.1235 20.9606 54.0839 21.0273 54.0657 21.1011C54.0475 21.1748 54.0515 21.2523 54.0772 21.3237C54.1029 21.3952 54.1492 21.4574 54.2103 21.5026C54.2713 21.5478 54.3443 21.5739 54.4202 21.5777C54.471 21.5802 54.5218 21.5727 54.5696 21.5554C54.6175 21.5382 54.6615 21.5117 54.699 21.4773C54.7365 21.443 54.7669 21.4016 54.7883 21.3554C54.8097 21.3093 54.8218 21.2594 54.8238 21.2085Z" fill="#F6BE4F"/>
</g>
<path d="M73.0243 108.244C87.8004 104.285 96.5692 89.0972 92.6099 74.3211C88.6507 59.545 73.4627 50.7762 58.6866 54.7355C43.9105 58.6947 35.1417 73.8827 39.101 88.6588C43.0602 103.435 58.2482 112.204 73.0243 108.244Z" fill="#D17E2C"/>
<path d="M52.2188 101.897C64.6988 109.102 80.6569 104.826 87.8622 92.346C95.0675 79.866 90.7916 63.9079 78.3116 56.7026C65.8316 49.4973 49.8735 53.7733 42.6682 66.2532C35.4629 78.7332 39.7389 94.6913 52.2188 101.897Z" fill="#E18D2A"/>
<path d="M71.8514 103.884C85.4291 100.246 93.4867 86.2901 89.8485 72.7125C86.2104 59.1348 72.2543 51.0772 58.6766 54.7153C45.0989 58.3535 37.0413 72.3096 40.6795 85.8873C44.3176 99.465 58.2737 107.523 71.8514 103.884Z" fill="#FFD503"/>
<path d="M82.6657 93.3898C90.4449 83.7798 88.9608 69.6831 79.3508 61.9039C69.7408 54.1246 55.6441 55.6087 47.8649 65.2187C40.0856 74.8287 41.5697 88.9255 51.1797 96.7047C60.7897 104.484 74.8865 103 82.6657 93.3898Z" fill="#E18D2A"/>
<path d="M82.1513 92.8894C89.6569 83.5643 88.1819 69.9203 78.8568 62.4147C69.5317 54.909 55.8876 56.384 48.382 65.7091C40.8764 75.0342 42.3514 88.6783 51.6765 96.1839C61.0016 103.69 74.6456 102.215 82.1513 92.8894Z" fill="#F5A800"/>
<g style="mix-blend-mode:multiply" opacity="0.3">
<path d="M84.0359 90.137C82.4223 92.9309 80.2054 95.3293 77.5468 97.1572C74.8883 98.9851 71.8552 100.196 68.6689 100.703C65.4825 101.209 62.2233 100.998 59.129 100.084C56.0348 99.1707 53.1835 97.5778 50.7832 95.4219C48.383 93.266 46.4943 90.6014 45.2551 87.6226C44.0158 84.6437 43.4572 81.4258 43.6199 78.2036C43.7827 74.9814 44.6628 71.8361 46.1959 68.9973C47.7291 66.1586 49.8767 63.6979 52.482 61.7948C52.0343 65.97 52.8087 70.1853 54.7112 73.9288C56.6136 77.6722 59.5622 80.7826 63.1987 82.8822C66.8353 84.9817 71.0033 85.9801 75.1964 85.7559C79.3895 85.5318 83.4274 84.0948 86.8193 81.6195C86.4979 84.6222 85.5497 87.524 84.0359 90.137Z" fill="#E49D01"/>
</g>
<g style="mix-blend-mode:screen">
<path d="M61.0741 58.7114C62.3897 58.2997 63.6511 58.604 63.91 59.4002C64.1689 60.1963 63.2993 61.1673 61.9907 61.5795C60.6821 61.9916 59.4153 61.6842 59.1564 60.888C58.8975 60.0918 59.7718 59.1127 61.0741 58.7114Z" fill="#999999"/>
<path d="M64.956 58.0732C65.132 58.0185 65.3201 58.0171 65.4968 58.0692C65.6735 58.1212 65.8309 58.2244 65.949 58.3657C66.0672 58.507 66.141 58.6801 66.1609 58.8632C66.1809 59.0464 66.1463 59.2313 66.0614 59.3948C65.9765 59.5583 65.8451 59.693 65.6838 59.7819C65.5225 59.8709 65.3385 59.9101 65.1549 59.8947C64.9713 59.8793 64.7964 59.8099 64.6522 59.6953C64.508 59.5807 64.4009 59.426 64.3445 59.2506C64.3067 59.1332 64.2925 59.0094 64.3029 58.8864C64.3132 58.7635 64.3478 58.6438 64.4046 58.5343C64.4615 58.4248 64.5395 58.3277 64.6342 58.2485C64.7288 58.1694 64.8382 58.1098 64.956 58.0732Z" fill="#999999"/>
</g>
<g style="mix-blend-mode:multiply" opacity="0.3">
<path d="M69.897 96.445C71.2126 96.0333 72.4724 96.3403 72.7194 97.126C72.9664 97.9117 72.1087 98.8932 70.8001 99.3053C69.4915 99.7175 68.2247 99.41 67.9793 98.6217C67.7339 97.8333 68.5884 96.8572 69.897 96.445Z" fill="#F6BE4F"/>
<path d="M73.7785 95.8095C73.9545 95.7548 74.1426 95.7534 74.3193 95.8055C74.496 95.8576 74.6534 95.9607 74.7716 96.102C74.8897 96.2433 74.9635 96.4165 74.9835 96.5996C75.0034 96.7827 74.9688 96.9676 74.8839 97.1311C74.799 97.2946 74.6676 97.4293 74.5063 97.5183C74.345 97.6072 74.161 97.6465 73.9774 97.631C73.7939 97.6156 73.619 97.5463 73.4747 97.4316C73.3305 97.317 73.2235 97.1623 73.167 96.987C73.1292 96.8695 73.115 96.7457 73.1254 96.6228C73.1357 96.4998 73.1703 96.3801 73.2272 96.2706C73.284 96.1612 73.362 96.064 73.4567 95.9849C73.5513 95.9057 73.6607 95.8461 73.7785 95.8095Z" fill="#F6BE4F"/>
</g>
<mask id="path-31-outside-1_1_7167" maskUnits="userSpaceOnUse" x="25.1204" y="36.2507" width="46.2128" height="48.0429" fill="black">
<rect fill="white" x="25.1204" y="36.2507" width="46.2128" height="48.0429"/>
<path d="M42.2727 48.0643C43.3398 50.0361 44.407 52.0079 45.4741 53.9796C45.8246 54.6272 46.4065 55.3844 47.0983 55.1896C47.4908 55.0792 47.7291 54.6889 47.9003 54.3157C48.3253 53.3852 48.5646 52.3808 48.6049 51.3586C48.6691 52.0257 48.5912 52.7173 48.8208 53.3496C49.0504 53.9819 49.7591 54.5262 50.357 54.2556C50.6268 54.1334 50.808 53.8773 50.9739 53.6302C52.8475 50.8351 54.3624 47.8156 55.4831 44.6427C54.7214 47.4127 54.1571 50.2331 53.7944 53.0829C53.6676 54.0778 53.6041 55.2095 54.2641 55.9762C55.171 57.0296 56.8092 56.748 58.1146 56.3741C57.7617 56.7035 57.276 56.8404 56.8603 57.0847C56.4446 57.3291 56.0674 57.7791 56.1767 58.2605C56.2461 58.5658 56.4934 58.7974 56.742 58.9868C59.3701 60.9891 63.0273 60.4012 66.1655 61.343C63.8234 61.2157 61.4795 61.5596 59.2726 62.3545C58.347 62.6893 57.3431 63.23 57.1359 64.2058C56.8694 65.4613 58.0517 66.539 59.1021 67.2927C58.5158 66.8785 57.9152 66.4572 57.2313 66.2582C56.5475 66.0592 55.7527 66.1207 55.233 66.595C54.8609 66.9346 54.6728 67.4459 54.6334 67.9563C54.5626 68.8718 54.9253 69.7681 55.2807 70.6227L57.3562 75.6129C56.2339 73.3985 54.889 71.3042 53.3421 69.3624C53.0566 69.0041 52.7496 68.6395 52.3376 68.4478C51.4981 68.0572 50.4759 68.545 49.9842 69.3168C49.4925 70.0886 49.4144 71.0601 49.4172 71.988C49.4276 70.5209 49.1371 69.0672 48.5635 67.7168C48.4958 67.5574 48.4183 67.392 48.2792 67.29C47.9255 67.0304 47.4527 67.3221 47.138 67.6151C44.8763 69.7317 43.197 72.3943 42.2613 75.3473C41.9611 76.2943 41.4435 76.8767 41.0177 77.7705C42.1254 74.1814 44.0277 70.9141 45.343 67.4017C45.5217 66.9247 45.657 66.3026 45.2716 65.9595C45.1234 65.8275 44.9262 65.7707 44.7346 65.7285C43.0616 65.3601 41.2441 65.8569 40.01 67.0198C41.0016 66.0929 41.9931 65.1661 42.9846 64.2392C43.223 64.0163 43.4816 63.7407 43.4412 63.41C43.3934 63.0192 42.9665 62.8067 42.5962 62.6813C39.2004 61.531 35.556 61.5663 32.0132 61.8127C35.6013 60.834 39.4038 60.6564 42.9087 59.4208C43.1134 59.3487 43.3399 59.2501 43.4106 59.0426C43.4613 58.8938 43.416 58.7288 43.3685 58.5768C42.9921 57.373 42.4775 56.2169 41.835 55.1315C42.4611 55.6718 43.1604 56.121 43.912 56.4659C44.2864 56.6374 44.7997 56.7492 45.0359 56.4183C45.1134 56.2944 45.1534 56.1507 45.151 56.0045C45.1719 55.4576 44.9446 54.9304 44.7219 54.4262C43.6809 52.0693 42.64 49.7125 41.599 47.3556C41.8101 47.4692 41.9834 47.6419 42.0978 47.8526C42.2122 48.0632 42.2627 48.3026 42.2431 48.5415"/>
</mask>
<path d="M42.2727 48.0643C43.3398 50.0361 44.407 52.0079 45.4741 53.9796C45.8246 54.6272 46.4065 55.3844 47.0983 55.1896C47.4908 55.0792 47.7291 54.6889 47.9003 54.3157C48.3253 53.3852 48.5646 52.3808 48.6049 51.3586C48.6691 52.0257 48.5912 52.7173 48.8208 53.3496C49.0504 53.9819 49.7591 54.5262 50.357 54.2556C50.6268 54.1334 50.808 53.8773 50.9739 53.6302C52.8475 50.8351 54.3624 47.8156 55.4831 44.6427C54.7214 47.4127 54.1571 50.2331 53.7944 53.0829C53.6676 54.0778 53.6041 55.2095 54.2641 55.9762C55.171 57.0296 56.8092 56.748 58.1146 56.3741C57.7617 56.7035 57.276 56.8404 56.8603 57.0847C56.4446 57.3291 56.0674 57.7791 56.1767 58.2605C56.2461 58.5658 56.4934 58.7974 56.742 58.9868C59.3701 60.9891 63.0273 60.4012 66.1655 61.343C63.8234 61.2157 61.4795 61.5596 59.2726 62.3545C58.347 62.6893 57.3431 63.23 57.1359 64.2058C56.8694 65.4613 58.0517 66.539 59.1021 67.2927C58.5158 66.8785 57.9152 66.4572 57.2313 66.2582C56.5475 66.0592 55.7527 66.1207 55.233 66.595C54.8609 66.9346 54.6728 67.4459 54.6334 67.9563C54.5626 68.8718 54.9253 69.7681 55.2807 70.6227L57.3562 75.6129C56.2339 73.3985 54.889 71.3042 53.3421 69.3624C53.0566 69.0041 52.7496 68.6395 52.3376 68.4478C51.4981 68.0572 50.4759 68.545 49.9842 69.3168C49.4925 70.0886 49.4144 71.0601 49.4172 71.988C49.4276 70.5209 49.1371 69.0672 48.5635 67.7168C48.4958 67.5574 48.4183 67.392 48.2792 67.29C47.9255 67.0304 47.4527 67.3221 47.138 67.6151C44.8763 69.7317 43.197 72.3943 42.2613 75.3473C41.9611 76.2943 41.4435 76.8767 41.0177 77.7705C42.1254 74.1814 44.0277 70.9141 45.343 67.4017C45.5217 66.9247 45.657 66.3026 45.2716 65.9595C45.1234 65.8275 44.9262 65.7707 44.7346 65.7285C43.0616 65.3601 41.2441 65.8569 40.01 67.0198C41.0016 66.0929 41.9931 65.1661 42.9846 64.2392C43.223 64.0163 43.4816 63.7407 43.4412 63.41C43.3934 63.0192 42.9665 62.8067 42.5962 62.6813C39.2004 61.531 35.556 61.5663 32.0132 61.8127C35.6013 60.834 39.4038 60.6564 42.9087 59.4208C43.1134 59.3487 43.3399 59.2501 43.4106 59.0426C43.4613 58.8938 43.416 58.7288 43.3685 58.5768C42.9921 57.373 42.4775 56.2169 41.835 55.1315C42.4611 55.6718 43.1604 56.121 43.912 56.4659C44.2864 56.6374 44.7997 56.7492 45.0359 56.4183C45.1134 56.2944 45.1534 56.1507 45.151 56.0045C45.1719 55.4576 44.9446 54.9304 44.7219 54.4262C43.6809 52.0693 42.64 49.7125 41.599 47.3556C41.8101 47.4692 41.9834 47.6419 42.0978 47.8526C42.2122 48.0632 42.2627 48.3026 42.2431 48.5415" fill="url(#paint0_linear_1_7167)"/>
<path d="M45.4741 53.9796L46.3536 53.5037L46.3536 53.5037L45.4741 53.9796ZM47.0983 55.1896L47.3693 56.1522L47.3693 56.1522L47.0983 55.1896ZM47.9003 54.3157L48.8093 54.7326L48.8099 54.7312L47.9003 54.3157ZM48.6049 51.3586L49.6003 51.2628L47.6057 51.3192L48.6049 51.3586ZM50.357 54.2556L50.7694 55.1666L50.7694 55.1666L50.357 54.2556ZM50.9739 53.6302L51.8042 54.1874L51.8045 54.187L50.9739 53.6302ZM55.4831 44.6427L56.4473 44.9079L54.5402 44.3097L55.4831 44.6427ZM53.7944 53.0829L54.7863 53.2092L54.7864 53.2091L53.7944 53.0829ZM54.2641 55.9762L55.022 55.3238L55.022 55.3238L54.2641 55.9762ZM58.1146 56.3741L58.7969 57.1051L57.8392 55.4127L58.1146 56.3741ZM56.1767 58.2605L57.1519 58.0389L57.1519 58.0389L56.1767 58.2605ZM56.742 58.9868L57.348 58.1914L57.348 58.1914L56.742 58.9868ZM66.1655 61.343L66.1112 62.3416L66.453 60.3852L66.1655 61.343ZM59.2726 62.3545L58.9337 61.4137L58.9326 61.4141L59.2726 62.3545ZM57.1359 64.2058L56.1577 63.9981L56.1577 63.9981L57.1359 64.2058ZM59.1021 67.2927L58.5251 68.1094L59.6851 66.4802L59.1021 67.2927ZM55.233 66.595L54.5589 65.8564L54.5589 65.8564L55.233 66.595ZM54.6334 67.9563L55.6304 68.0334L55.6304 68.0334L54.6334 67.9563ZM55.2807 70.6227L56.204 70.2386L55.2807 70.6227ZM57.3562 75.6129L56.4642 76.0649L58.2795 75.2288L57.3562 75.6129ZM53.3421 69.3624L54.1243 68.7393L54.1242 68.7392L53.3421 69.3624ZM52.3376 68.4478L51.9157 69.3545L51.9157 69.3545L52.3376 68.4478ZM49.4172 71.988L48.4172 71.991L50.4172 71.9951L49.4172 71.988ZM48.5635 67.7168L49.4839 67.3259L49.4839 67.3257L48.5635 67.7168ZM48.2792 67.29L48.8709 66.4838L48.8708 66.4838L48.2792 67.29ZM47.138 67.6151L46.4566 66.8831L46.4547 66.8849L47.138 67.6151ZM42.2613 75.3473L43.2145 75.6494L43.2146 75.6493L42.2613 75.3473ZM41.0177 77.7705L40.0622 77.4756L41.9205 78.2006L41.0177 77.7705ZM45.343 67.4017L46.2795 67.7524L46.2795 67.7524L45.343 67.4017ZM45.2716 65.9595L45.9367 65.2127L45.9366 65.2126L45.2716 65.9595ZM44.7346 65.7285L44.9497 64.7519L44.9497 64.7519L44.7346 65.7285ZM40.01 67.0198L39.3242 66.292L40.6929 67.7503L40.01 67.0198ZM42.9846 64.2392L42.3017 63.5087L42.3017 63.5087L42.9846 64.2392ZM43.4412 63.41L42.4486 63.5314L42.4486 63.5314L43.4412 63.41ZM42.5962 62.6813L42.2754 63.6285L42.2754 63.6285L42.5962 62.6813ZM32.0132 61.8127L31.75 60.848L32.0826 62.8103L32.0132 61.8127ZM42.9087 59.4208L42.5762 58.4777L42.5762 58.4777L42.9087 59.4208ZM43.4106 59.0426L44.3573 59.3649L44.3573 59.3648L43.4106 59.0426ZM43.3685 58.5768L44.323 58.2785L44.3229 58.2783L43.3685 58.5768ZM41.835 55.1315L42.4883 54.3744L40.9745 55.6409L41.835 55.1315ZM43.912 56.4659L43.495 57.3748L43.4956 57.3751L43.912 56.4659ZM45.0359 56.4183L45.8498 56.9993L45.8676 56.9744L45.8838 56.9485L45.0359 56.4183ZM45.151 56.0045L44.1517 55.9662L44.1507 55.9936L44.1511 56.021L45.151 56.0045ZM44.7219 54.4262L45.6366 54.0222L45.6366 54.0222L44.7219 54.4262ZM41.599 47.3556L42.0732 46.4751L39.5065 45.093L40.6843 47.7596L41.599 47.3556ZM41.3932 48.5402C42.4604 50.512 43.5275 52.4838 44.5947 54.4556L46.3536 53.5037C45.2865 51.5319 44.2193 49.5601 43.1522 47.5883L41.3932 48.5402ZM44.5947 54.4556C44.7926 54.8214 45.0912 55.2888 45.4927 55.6469C45.8968 56.0072 46.5595 56.3802 47.3693 56.1522L46.8274 54.227C46.9454 54.1938 46.9712 54.2856 46.8238 54.1541C46.6737 54.0204 46.5061 53.7855 46.3536 53.5037L44.5947 54.4556ZM47.3693 56.1522C48.2434 55.9062 48.6424 55.0965 48.8093 54.7326L46.9914 53.8988C46.9198 54.0549 46.8597 54.1555 46.8102 54.2158C46.7646 54.2711 46.7682 54.2437 46.8274 54.227L47.3693 56.1522ZM48.8099 54.7312C49.289 53.6823 49.5587 52.5501 49.6041 51.398L47.6057 51.3192C47.5705 52.2114 47.3616 53.0881 46.9907 53.9003L48.8099 54.7312ZM47.6095 51.4544C47.6399 51.7702 47.63 51.9888 47.6522 52.4186C47.6711 52.787 47.7154 53.2351 47.8809 53.6909L49.7608 53.0083C49.6967 52.8319 49.6651 52.618 49.6495 52.3157C49.6371 52.0749 49.6341 51.6141 49.6003 51.2628L47.6095 51.4544ZM47.8809 53.6909C48.07 54.2118 48.4439 54.6812 48.9081 54.9811C49.3751 55.2828 50.0666 55.4847 50.7694 55.1666L49.9445 53.3446C49.9858 53.3259 50.0256 53.3252 50.0437 53.3279C50.0551 53.3296 50.0365 53.329 49.9935 53.3012C49.9513 53.274 49.9018 53.2307 49.8559 53.173C49.8101 53.1155 49.7785 53.057 49.7608 53.0083L47.8809 53.6909ZM50.7694 55.1666C51.3367 54.9097 51.6606 54.4014 51.8042 54.1874L50.1435 53.073C50.0602 53.1971 50.009 53.2679 49.9631 53.3186C49.9214 53.3646 49.9155 53.3577 49.9445 53.3446L50.7694 55.1666ZM51.8045 54.187C53.7247 51.3223 55.2774 48.2276 56.426 44.9758L54.5402 44.3097C53.4474 47.4036 51.9702 50.3479 50.1432 53.0734L51.8045 54.187ZM54.5189 44.3776C53.7447 47.1931 53.171 50.06 52.8024 52.9566L54.7864 53.2091C55.1431 50.4063 55.6981 47.6322 56.4473 44.9079L54.5189 44.3776ZM52.8024 52.9565C52.7372 53.4683 52.6765 54.0937 52.7392 54.7155C52.8028 55.3454 52.9995 56.04 53.5063 56.6287L55.022 55.3238C54.8687 55.1458 54.7671 54.8912 54.7291 54.5147C54.6903 54.1303 54.7248 53.6924 54.7863 53.2092L52.8024 52.9565ZM53.5063 56.6287C54.2091 57.4451 55.1652 57.6921 56.0188 57.7102C56.8588 57.728 57.7117 57.5297 58.39 57.3354L57.8392 55.4127C57.2122 55.5924 56.5933 55.7219 56.0611 55.7106C55.5425 55.6996 55.226 55.5608 55.022 55.3238L53.5063 56.6287ZM57.4323 55.643C57.3679 55.7031 57.2679 55.7674 57.0731 55.8623C56.921 55.9364 56.6055 56.0745 56.3535 56.2226L57.367 57.9468C57.5307 57.8506 57.666 57.7981 57.9489 57.6603C58.1891 57.5433 58.5084 57.3744 58.7969 57.1051L57.4323 55.643ZM56.3535 56.2226C56.04 56.4069 55.7169 56.6804 55.4841 57.0373C55.2467 57.4012 55.0714 57.9091 55.2016 58.482L57.1519 58.0389C57.1606 58.0773 57.1581 58.1126 57.1529 58.1348C57.1486 58.1534 57.1453 58.1513 57.1591 58.1301C57.1729 58.1089 57.1979 58.078 57.2368 58.0424C57.2754 58.0072 57.3204 57.9742 57.367 57.9468L56.3535 56.2226ZM55.2016 58.482C55.3567 59.1648 55.8762 59.5843 56.136 59.7823L57.348 58.1914C57.2473 58.1146 57.1884 58.0599 57.1548 58.0203C57.1236 57.9835 57.141 57.991 57.1519 58.0389L55.2016 58.482ZM56.136 59.7823C57.6667 60.9485 59.4583 61.3278 61.1285 61.5536C62.877 61.79 64.4095 61.8601 65.8781 62.3008L66.453 60.3852C64.7834 59.8842 62.9181 59.7773 61.3964 59.5716C59.7965 59.3553 58.4455 59.0275 57.348 58.1914L56.136 59.7823ZM66.2198 60.3445C63.7441 60.2099 61.2665 60.5734 58.9337 61.4137L59.6115 63.2953C61.6925 62.5458 63.9027 62.2214 66.1112 62.3416L66.2198 60.3445ZM58.9326 61.4141C58.4284 61.5965 57.8379 61.8566 57.3289 62.2442C56.8125 62.6375 56.326 63.2054 56.1577 63.9981L58.1141 64.4134C58.153 64.2304 58.272 64.04 58.5407 63.8353C58.8169 63.625 59.1913 63.4473 59.6127 63.2949L58.9326 61.4141ZM56.1577 63.9981C55.9416 65.0161 56.3377 65.8926 56.8275 66.5405C57.3129 67.1826 57.9691 67.7105 58.5192 68.1052L59.6851 66.4802C59.1848 66.1212 58.7245 65.7334 58.4228 65.3344C58.1255 64.941 58.0637 64.651 58.1141 64.4134L56.1577 63.9981ZM59.6791 66.476C59.1168 66.0787 58.3821 65.5516 57.5107 65.298L56.9519 67.2184C57.4483 67.3628 57.9148 67.6783 58.5251 68.1094L59.6791 66.476ZM57.5107 65.298C56.6291 65.0415 55.4263 65.0647 54.5589 65.8564L55.9071 67.3336C56.0791 67.1766 56.4659 67.077 56.9519 67.2184L57.5107 65.298ZM54.5589 65.8564C53.9439 66.4176 53.6888 67.2008 53.6364 67.8793L55.6304 68.0334C55.6569 67.691 55.7779 67.4516 55.9071 67.3336L54.5589 65.8564ZM53.6364 67.8793C53.5441 69.0733 54.0183 70.1916 54.3574 71.0067L56.204 70.2386C55.8322 69.3446 55.5812 68.6704 55.6304 68.0334L53.6364 67.8793ZM54.3574 71.0067L56.4329 75.9969L58.2795 75.2288L56.204 70.2386L54.3574 71.0067ZM58.2482 75.1608C57.0952 72.8858 55.7134 70.7342 54.1243 68.7393L52.56 69.9855C54.0645 71.8741 55.3727 73.9111 56.4642 76.0649L58.2482 75.1608ZM54.1242 68.7392C53.8531 68.399 53.4138 67.8456 52.7594 67.5412L51.9157 69.3545C52.0854 69.4335 52.2601 69.6093 52.56 69.9856L54.1242 68.7392ZM52.7594 67.5412C51.3166 66.8699 49.8034 67.7394 49.1408 68.7795L50.8276 69.8541C51.1484 69.3506 51.6796 69.2446 51.9157 69.3545L52.7594 67.5412ZM49.1408 68.7795C48.4812 69.8149 48.4144 71.0469 48.4172 71.991L50.4172 71.985C50.4145 71.0733 50.5038 70.3624 50.8276 69.8541L49.1408 68.7795ZM50.4172 71.9951C50.4285 70.3913 50.1109 68.8021 49.4839 67.3259L47.6431 68.1077C48.1632 69.3323 48.4266 70.6505 48.4172 71.9809L50.4172 71.9951ZM49.4839 67.3257C49.4257 67.1888 49.2598 66.7692 48.8709 66.4838L47.6875 68.0961C47.6538 68.0714 47.6301 68.0474 47.6153 68.0302C47.608 68.0218 47.6028 68.0149 47.5996 68.0104C47.5964 68.0059 47.5948 68.0033 47.5948 68.0033C47.5948 68.0033 47.596 68.0053 47.5985 68.0099C47.6009 68.0145 47.6042 68.021 47.6086 68.03C47.6177 68.0489 47.6282 68.0727 47.6432 68.1079L49.4839 67.3257ZM48.8708 66.4838C48.3213 66.0805 47.7217 66.1642 47.337 66.3112C46.9661 66.4529 46.6601 66.6937 46.4566 66.8831L47.8194 68.347C47.8686 68.3012 47.9185 68.2607 47.9646 68.2291C48.0123 68.1964 48.0419 68.1829 48.0509 68.1794C48.061 68.1756 48.0235 68.1924 47.9497 68.189C47.9111 68.1872 47.8653 68.1799 47.8164 68.1631C47.7671 68.1461 47.7235 68.1225 47.6875 68.0961L48.8708 66.4838ZM46.4547 66.8849C44.0678 69.1187 42.2955 71.9288 41.308 75.0452L43.2146 75.6493C44.0984 72.8599 45.6848 70.3446 47.8213 68.3452L46.4547 66.8849ZM41.308 75.0451C41.1913 75.4133 41.0305 75.7206 40.8238 76.0733C40.6264 76.4103 40.3522 76.8424 40.1149 77.3404L41.9205 78.2006C42.1091 77.8048 42.3066 77.4988 42.5494 77.0844C42.783 76.6857 43.031 76.2283 43.2145 75.6494L41.308 75.0451ZM41.9733 78.0654C42.5065 76.3376 43.2351 74.6741 44.0122 72.9727C44.7816 71.2879 45.6061 69.5505 46.2795 67.7524L44.4065 67.051C43.7646 68.7653 42.9803 70.4177 42.1929 72.1419C41.413 73.8495 40.6367 75.6143 40.0622 77.4756L41.9733 78.0654ZM46.2795 67.7524C46.3836 67.4743 46.5054 67.0801 46.5184 66.6614C46.5316 66.233 46.4298 65.6518 45.9367 65.2127L44.6066 66.7063C44.5624 66.6669 44.5353 66.6186 44.5236 66.584C44.5144 66.557 44.5206 66.5569 44.5193 66.5994C44.518 66.6413 44.51 66.7037 44.4897 66.7871C44.4698 66.8692 44.4412 66.9583 44.4065 67.051L46.2795 67.7524ZM45.9366 65.2126C45.5784 64.8937 45.1509 64.7962 44.9497 64.7519L44.5196 66.7051C44.5574 66.7135 44.5862 66.7205 44.6098 66.7271C44.6332 66.7336 44.6472 66.7385 44.6545 66.7414C44.6699 66.7474 44.6444 66.74 44.6067 66.7064L45.9366 65.2126ZM44.9497 64.7519C42.9576 64.3133 40.8019 64.8995 39.3242 66.292L40.6959 67.7476C41.6863 66.8142 43.1655 66.407 44.5196 66.7051L44.9497 64.7519ZM40.6929 67.7503C41.6844 66.8235 42.676 65.8966 43.6675 64.9697L42.3017 63.5087C41.3102 64.4356 40.3187 65.3624 39.3271 66.2893L40.6929 67.7503ZM43.6675 64.9697C43.794 64.8514 43.9963 64.6566 44.1569 64.4085C44.3241 64.1501 44.4919 63.7635 44.4338 63.2887L42.4486 63.5314C42.4405 63.4653 42.4489 63.407 42.461 63.3657C42.472 63.3283 42.4835 63.313 42.478 63.3216C42.4723 63.3303 42.457 63.3515 42.425 63.3865C42.393 63.4213 42.3534 63.4603 42.3017 63.5087L43.6675 64.9697ZM44.4338 63.2887C44.365 62.7259 44.0232 62.356 43.7344 62.1423C43.4525 61.9336 43.1391 61.8094 42.9171 61.7342L42.2754 63.6285C42.3434 63.6515 42.4026 63.6747 42.4522 63.6981C42.5027 63.7219 42.5317 63.7403 42.5448 63.75C42.5582 63.7599 42.5407 63.75 42.5155 63.7133C42.4869 63.6714 42.4579 63.6081 42.4486 63.5314L44.4338 63.2887ZM42.9171 61.7342C39.3214 60.5162 35.5071 60.5673 31.9438 60.8151L32.0826 62.8103C35.6048 62.5653 39.0795 62.5459 42.2754 63.6285L42.9171 61.7342ZM32.2763 62.7775C34.0132 62.3037 35.8004 62.024 37.6643 61.6982C39.5047 61.3765 41.4034 61.0118 43.2411 60.3639L42.5762 58.4777C40.909 59.0655 39.1541 59.4074 37.3199 59.7281C35.5094 60.0446 33.6013 60.343 31.75 60.848L32.2763 62.7775ZM43.2411 60.3639C43.3558 60.3235 43.5598 60.2486 43.7575 60.1192C43.9641 59.984 44.2267 59.7482 44.3573 59.3649L42.464 58.7203C42.5238 58.5445 42.6378 58.4618 42.6623 58.4457C42.6749 58.4375 42.6763 58.4383 42.6588 58.446C42.6415 58.4537 42.6162 58.4636 42.5762 58.4777L43.2411 60.3639ZM44.3573 59.3648C44.5283 58.8624 44.3567 58.3863 44.323 58.2785L42.414 58.875C42.4245 58.9086 42.4303 58.9285 42.4341 58.9432C42.4378 58.9574 42.4371 58.9576 42.4358 58.9481C42.4335 58.9316 42.4228 58.8413 42.464 58.7203L44.3573 59.3648ZM44.3229 58.2783C43.9234 57.0008 43.3774 55.7739 42.6956 54.6221L40.9745 55.6409C41.5776 56.6598 42.0607 57.7451 42.4141 58.8752L44.3229 58.2783ZM41.1817 55.8886C41.8791 56.4904 42.6578 56.9907 43.495 57.3748L44.3291 55.557C43.6629 55.2514 43.0432 54.8533 42.4883 54.3744L41.1817 55.8886ZM43.4956 57.3751C43.7467 57.4901 44.1024 57.6147 44.4866 57.6297C44.88 57.6452 45.4633 57.5409 45.8498 56.9993L44.222 55.8373C44.2854 55.7484 44.3734 55.6871 44.4558 55.6555C44.5274 55.6281 44.5715 55.6315 44.565 55.6313C44.5598 55.6311 44.5327 55.6287 44.4835 55.6148C44.436 55.6014 44.3824 55.5815 44.3284 55.5568L43.4956 57.3751ZM45.8838 56.9485C46.0637 56.6608 46.1564 56.3272 46.1508 55.988L44.1511 56.021C44.1503 55.9741 44.1632 55.9279 44.1881 55.8881L45.8838 56.9485ZM46.1502 56.0428C46.1815 55.2272 45.8428 54.489 45.6366 54.0222L43.8071 54.8302C44.0463 55.3719 44.1624 55.688 44.1517 55.9662L46.1502 56.0428ZM45.6366 54.0222C44.5957 51.6653 43.5547 49.3085 42.5138 46.9516L40.6843 47.7596C41.7252 50.1165 42.7662 52.4734 43.8071 54.8302L45.6366 54.0222ZM41.1249 48.236C41.1647 48.2575 41.1974 48.2901 41.219 48.3298L42.9765 47.3753C42.7694 46.9938 42.4554 46.681 42.0732 46.4751L41.1249 48.236ZM41.219 48.3298C41.2406 48.3696 41.2501 48.4147 41.2464 48.4598L43.2397 48.6232C43.2752 48.1904 43.1837 47.7568 42.9765 47.3753L41.219 48.3298Z" fill="white" mask="url(#path-31-outside-1_1_7167)"/>
<mask id="path-33-outside-2_1_7167" maskUnits="userSpaceOnUse" x="49.0137" y="2.94531" width="21" height="22" fill="black">
<rect fill="white" x="49.0137" y="2.94531" width="21" height="22"/>
<path d="M57.9805 11.7887C58.0124 9.15453 58.2832 6.52898 58.7895 3.94531C58.701 6.714 58.744 9.48495 58.787 12.2547C59.021 11.3475 59.3954 10.4838 59.896 9.69589C59.6356 10.6754 59.3752 11.6549 59.1148 12.6344C61.8216 9.6149 64.9598 7.00965 68.0853 4.41658C65.3042 7.41463 62.5231 10.4127 59.742 13.4107C61.995 12.8605 64.2969 13.9979 66.6143 14.1185C64.4489 14.0579 62.2836 13.9974 60.1182 13.9369C60.9726 14.3994 61.827 14.8619 62.6814 15.3244L60.1334 14.8143C61.2938 15.4862 62.2103 16.4943 63.1068 17.486C65.0803 19.669 67.0538 21.8521 69.0272 24.0351C65.2369 21.4014 61.7857 18.2966 58.7539 14.7932C58.6436 17.6573 58.4123 20.5135 58.0601 23.3618C57.8831 21.0992 57.7062 18.8366 57.5292 16.574C57.2585 17.3332 56.9879 18.0923 56.7172 18.8514C56.8878 17.7114 57.0585 16.5715 57.2292 15.4316C55.0551 18.302 52.8607 21.1844 50.4057 23.8235C52.291 20.5558 54.378 17.4125 56.6539 14.4123C54.5048 14.837 52.2857 14.48 50.1241 14.1226C52.3992 14.1923 54.676 14.074 56.9322 13.7688C56.207 13.035 55.2099 12.6416 54.244 12.2682C55.2405 12.5543 56.2371 12.8403 57.2336 13.1264C56.4549 12.5438 55.7132 11.9118 55.013 11.2342C54.0081 10.2615 53.0954 9.20048 52.1842 8.14119C51.4607 7.30004 50.7372 6.45889 50.0137 5.61773C52.6726 7.97603 55.3316 10.3343 57.9905 12.6926C58.0418 12.3417 58.0405 11.9849 57.9866 11.6344"/>
</mask>
<path d="M57.9805 11.7887C58.0124 9.15453 58.2832 6.52898 58.7895 3.94531C58.701 6.714 58.744 9.48495 58.787 12.2547C59.021 11.3475 59.3954 10.4838 59.896 9.69589C59.6356 10.6754 59.3752 11.6549 59.1148 12.6344C61.8216 9.6149 64.9598 7.00965 68.0853 4.41658C65.3042 7.41463 62.5231 10.4127 59.742 13.4107C61.995 12.8605 64.2969 13.9979 66.6143 14.1185C64.4489 14.0579 62.2836 13.9974 60.1182 13.9369C60.9726 14.3994 61.827 14.8619 62.6814 15.3244L60.1334 14.8143C61.2938 15.4862 62.2103 16.4943 63.1068 17.486C65.0803 19.669 67.0538 21.8521 69.0272 24.0351C65.2369 21.4014 61.7857 18.2966 58.7539 14.7932C58.6436 17.6573 58.4123 20.5135 58.0601 23.3618C57.8831 21.0992 57.7062 18.8366 57.5292 16.574C57.2585 17.3332 56.9879 18.0923 56.7172 18.8514C56.8878 17.7114 57.0585 16.5715 57.2292 15.4316C55.0551 18.302 52.8607 21.1844 50.4057 23.8235C52.291 20.5558 54.378 17.4125 56.6539 14.4123C54.5048 14.837 52.2857 14.48 50.1241 14.1226C52.3992 14.1923 54.676 14.074 56.9322 13.7688C56.207 13.035 55.2099 12.6416 54.244 12.2682C55.2405 12.5543 56.2371 12.8403 57.2336 13.1264C56.4549 12.5438 55.7132 11.9118 55.013 11.2342C54.0081 10.2615 53.0954 9.20048 52.1842 8.14119C51.4607 7.30004 50.7372 6.45889 50.0137 5.61773C52.6726 7.97603 55.3316 10.3343 57.9905 12.6926C58.0418 12.3417 58.0405 11.9849 57.9866 11.6344" fill="url(#paint1_linear_1_7167)"/>
<path d="M58.7895 3.94531L59.789 3.97725L57.8081 3.75302L58.7895 3.94531ZM58.787 12.2547L57.7871 12.2702L59.7553 12.5045L58.787 12.2547ZM59.896 9.69589L60.8625 9.95282L59.052 9.1596L59.896 9.69589ZM59.1148 12.6344L58.1484 12.3774L59.8595 13.3018L59.1148 12.6344ZM68.0853 4.41658L68.8184 5.09666L67.4468 3.64697L68.0853 4.41658ZM59.742 13.4107L59.0089 12.7306L56.7439 15.1723L59.9793 14.3822L59.742 13.4107ZM66.6143 14.1185L66.5863 15.1181L66.6662 13.1198L66.6143 14.1185ZM60.1182 13.9369L60.1462 12.9373L59.6422 14.8163L60.1182 13.9369ZM62.6814 15.3244L62.4851 16.3049L63.1574 14.4449L62.6814 15.3244ZM60.1334 14.8143L60.3297 13.8337L59.6323 15.6797L60.1334 14.8143ZM63.1068 17.486L63.8486 16.8154L63.8486 16.8154L63.1068 17.486ZM69.0272 24.0351L68.4566 24.8563L69.7691 23.3645L69.0272 24.0351ZM58.7539 14.7932L59.5101 14.1388L57.8521 12.2229L57.7546 14.7547L58.7539 14.7932ZM58.0601 23.3618L57.0632 23.4397L59.0525 23.4845L58.0601 23.3618ZM57.5292 16.574L58.5262 16.4961L56.5873 16.2382L57.5292 16.574ZM56.7172 18.8514L55.7282 18.7033L57.6591 19.1872L56.7172 18.8514ZM57.2292 15.4316L58.2181 15.5797L56.432 14.8278L57.2292 15.4316ZM50.4057 23.8235L49.5395 23.3237L51.1378 24.5046L50.4057 23.8235ZM56.6539 14.4123L57.4506 15.0166L59.0402 12.9213L56.46 13.4312L56.6539 14.4123ZM50.1241 14.1226L50.1548 13.123L49.961 15.1092L50.1241 14.1226ZM56.9322 13.7688L57.0662 14.7597L59.0519 14.4911L57.6434 13.0659L56.9322 13.7688ZM54.244 12.2682L54.5199 11.307L53.8834 13.201L54.244 12.2682ZM57.2336 13.1264L56.9577 14.0876L57.8327 12.3257L57.2336 13.1264ZM55.013 11.2342L54.3175 11.9527L54.3176 11.9528L55.013 11.2342ZM52.1842 8.14119L51.4261 8.79329L51.4261 8.7933L52.1842 8.14119ZM50.0137 5.61773L50.6772 4.86959L49.2555 6.26983L50.0137 5.61773ZM57.9905 12.6926L57.327 13.4407L58.712 14.6692L58.98 12.8373L57.9905 12.6926ZM58.9804 11.8008C59.0116 9.2271 59.2762 6.66186 59.7708 4.13761L57.8081 3.75302C57.2902 6.3961 57.0132 9.08196 56.9806 11.7766L58.9804 11.8008ZM57.79 3.91337C57.7006 6.70974 57.7442 9.50444 57.7871 12.2702L59.7869 12.2392C59.7438 9.46547 59.7014 6.71825 59.789 3.97725L57.79 3.91337ZM59.7553 12.5045C59.9633 11.6984 60.2958 10.9314 60.7401 10.2322L59.052 9.1596C58.495 10.0363 58.0788 10.9967 57.8187 12.0049L59.7553 12.5045ZM58.9296 9.43896C58.6692 10.4185 58.4088 11.3979 58.1484 12.3774L60.0813 12.8913C60.3417 11.9118 60.6021 10.9323 60.8625 9.95282L58.9296 9.43896ZM59.8595 13.3018C62.5087 10.3465 65.5887 7.78721 68.7238 5.18619L67.4468 3.64697C64.3309 6.2321 61.1344 8.88327 58.3702 11.9669L59.8595 13.3018ZM67.3522 3.7365C64.5711 6.73454 61.79 9.73259 59.0089 12.7306L60.4751 14.0908C63.2562 11.0928 66.0373 8.09471 68.8184 5.09666L67.3522 3.7365ZM59.9793 14.3822C60.8805 14.1621 61.8361 14.268 62.9568 14.4934C64.0122 14.7057 65.306 15.0517 66.5623 15.1171L66.6662 13.1198C65.6052 13.0646 64.5894 12.7817 63.3512 12.5327C62.1783 12.2968 60.8565 12.1092 59.5048 12.4393L59.9793 14.3822ZM66.6422 13.1189C64.4769 13.0583 62.3115 12.9978 60.1462 12.9373L60.0903 14.9365C62.2556 14.997 64.421 15.0575 66.5863 15.1181L66.6422 13.1189ZM59.6422 14.8163C60.4966 15.2788 61.351 15.7413 62.2054 16.2038L63.1574 14.4449C62.303 13.9824 61.4486 13.5199 60.5942 13.0575L59.6422 14.8163ZM62.8777 14.3438L60.3297 13.8337L59.9371 15.7948L62.4851 16.3049L62.8777 14.3438ZM59.6323 15.6797C60.6349 16.2602 61.451 17.1455 62.365 18.1566L63.8486 16.8154C62.9697 15.8431 61.9527 14.7122 60.6345 13.9489L59.6323 15.6797ZM62.365 18.1566C64.3385 20.3396 66.3119 22.5227 68.2854 24.7057L69.7691 23.3645C67.7956 21.1815 65.8221 18.9984 63.8486 16.8154L62.365 18.1566ZM69.5979 23.2139C65.8764 20.628 62.4875 17.5794 59.5101 14.1388L57.9977 15.4475C61.084 19.0139 64.5975 22.1748 68.4566 24.8563L69.5979 23.2139ZM57.7546 14.7547C57.6454 17.5906 57.4165 20.4187 57.0677 23.239L59.0525 23.4845C59.4082 20.6083 59.6418 17.724 59.7531 14.8316L57.7546 14.7547ZM59.0571 23.2838C58.8801 21.0212 58.7031 18.7586 58.5262 16.4961L56.5323 16.652C56.7092 18.9146 56.8862 21.1772 57.0632 23.4397L59.0571 23.2838ZM56.5873 16.2382C56.3166 16.9973 56.046 17.7564 55.7753 18.5155L57.6591 19.1872C57.9298 18.4281 58.2005 17.669 58.4711 16.9099L56.5873 16.2382ZM57.7062 18.9994C57.8768 17.8595 58.0475 16.7196 58.2181 15.5797L56.2402 15.2835C56.0695 16.4235 55.8989 17.5634 55.7282 18.7033L57.7062 18.9994ZM56.432 14.8278C54.2543 17.7032 52.0889 20.5459 49.6735 23.1423L51.1378 24.5046C53.6325 21.8229 55.856 18.9009 58.0263 16.0354L56.432 14.8278ZM51.2718 24.3232C53.1363 21.0918 55.2 17.9834 57.4506 15.0166L55.8572 13.8079C53.5559 16.8415 51.4458 20.0198 49.5395 23.3237L51.2718 24.3232ZM56.46 13.4312C54.518 13.8151 52.4793 13.4984 50.2873 13.136L49.961 15.1092C52.0922 15.4616 54.4915 15.859 56.8478 15.3933L56.46 13.4312ZM50.0935 15.1221C52.4236 15.1936 54.7555 15.0724 57.0662 14.7597L56.7981 12.7778C54.5965 13.0757 52.3748 13.1911 50.1548 13.123L50.0935 15.1221ZM57.6434 13.0659C56.7429 12.1546 55.5357 11.6954 54.6046 11.3355L53.8834 13.201C54.8842 13.5878 55.6711 13.9154 56.2209 14.4717L57.6434 13.0659ZM53.9681 13.2294C54.9646 13.5154 55.9612 13.8015 56.9577 14.0876L57.5096 12.1652C56.513 11.8791 55.5164 11.5931 54.5199 11.307L53.9681 13.2294ZM57.8327 12.3257C57.0879 11.7684 56.3784 11.1639 55.7084 10.5156L54.3176 11.9528C55.0481 12.6597 55.822 13.3191 56.6346 13.9271L57.8327 12.3257ZM55.7085 10.5156C54.7419 9.58001 53.8585 8.55414 52.9424 7.48908L51.4261 8.7933C52.3323 9.84683 53.2743 10.9429 54.3175 11.9527L55.7085 10.5156ZM52.9424 7.48908C52.2188 6.64793 51.4953 5.80678 50.7718 4.96562L49.2555 6.26983C49.9791 7.11099 50.7026 7.95215 51.4261 8.79329L52.9424 7.48908ZM49.3501 6.36586C52.0091 8.72416 54.668 11.0825 57.327 13.4407L58.654 11.9445C55.9951 9.58618 53.3362 7.22789 50.6772 4.86959L49.3501 6.36586ZM58.98 12.8373C59.0457 12.388 59.044 11.9312 58.975 11.4824L56.9982 11.7864C57.037 12.0386 57.038 12.2954 57.001 12.5479L58.98 12.8373Z" fill="white" mask="url(#path-33-outside-2_1_7167)"/>
<mask id="path-35-outside-3_1_7167" maskUnits="userSpaceOnUse" x="90.1419" y="23.1123" width="26.9176" height="26.2303" fill="black">
<rect fill="white" x="90.1419" y="23.1123" width="26.9176" height="26.2303"/>
<path d="M101.106 37.1101C98.5819 36.3567 96.1314 35.3759 93.7858 34.1801C96.4239 35.0249 99.1004 35.7438 101.776 36.4624C100.967 35.9884 100.24 35.3915 99.6193 34.6939C100.49 35.213 101.36 35.7322 102.231 36.2513C100.07 32.82 98.4255 29.0874 96.7895 25.3704C98.9094 28.8673 101.029 32.3643 103.149 35.8612C103.238 33.5438 104.964 31.6422 105.715 29.4469C105.063 31.5125 104.411 33.5782 103.758 35.6438C104.438 34.9491 105.117 34.2544 105.796 33.5597L104.606 35.87C105.571 34.9384 106.792 34.3337 107.991 33.7437C110.632 32.445 113.273 31.1462 115.914 29.8474C112.341 32.7696 108.408 35.2365 104.208 37.1907C106.932 38.0826 109.615 39.0887 112.257 40.2089C110.033 39.7583 107.808 39.3077 105.584 38.857C106.24 39.3256 106.895 39.7942 107.551 40.2627C106.502 39.7859 105.453 39.309 104.403 38.8321C106.567 41.7103 108.737 44.6113 110.601 47.6963C107.976 44.9867 105.526 42.1174 103.265 39.1056C103.084 41.2888 102.132 43.3247 101.195 45.3053C101.886 43.1367 102.397 40.9148 102.723 38.6615C101.818 39.1575 101.166 40.0084 100.542 40.8348C101.091 39.9549 101.639 39.0751 102.188 38.1953C101.414 38.7843 100.602 39.3241 99.7588 39.8115C98.5477 40.511 97.277 41.0976 96.0083 41.6831C95.0009 42.1481 93.9936 42.613 92.9862 43.078C95.9835 41.1682 98.9808 39.2583 101.978 37.3485C101.655 37.2028 101.311 37.1062 100.96 37.0619"/>
</mask>
<path d="M101.106 37.1101C98.5819 36.3567 96.1314 35.3759 93.7858 34.1801C96.4239 35.0249 99.1004 35.7438 101.776 36.4624C100.967 35.9884 100.24 35.3915 99.6193 34.6939C100.49 35.213 101.36 35.7322 102.231 36.2513C100.07 32.82 98.4255 29.0874 96.7895 25.3704C98.9094 28.8673 101.029 32.3643 103.149 35.8612C103.238 33.5438 104.964 31.6422 105.715 29.4469C105.063 31.5125 104.411 33.5782 103.758 35.6438C104.438 34.9491 105.117 34.2544 105.796 33.5597L104.606 35.87C105.571 34.9384 106.792 34.3337 107.991 33.7437C110.632 32.445 113.273 31.1462 115.914 29.8474C112.341 32.7696 108.408 35.2365 104.208 37.1907C106.932 38.0826 109.615 39.0887 112.257 40.2089C110.033 39.7583 107.808 39.3077 105.584 38.857C106.24 39.3256 106.895 39.7942 107.551 40.2627C106.502 39.7859 105.453 39.309 104.403 38.8321C106.567 41.7103 108.737 44.6113 110.601 47.6963C107.976 44.9867 105.526 42.1174 103.265 39.1056C103.084 41.2888 102.132 43.3247 101.195 45.3053C101.886 43.1367 102.397 40.9148 102.723 38.6615C101.818 39.1575 101.166 40.0084 100.542 40.8348C101.091 39.9549 101.639 39.0751 102.188 38.1953C101.414 38.7843 100.602 39.3241 99.7588 39.8115C98.5477 40.511 97.277 41.0976 96.0083 41.6831C95.0009 42.1481 93.9936 42.613 92.9862 43.078C95.9835 41.1682 98.9808 39.2583 101.978 37.3485C101.655 37.2028 101.311 37.1062 100.96 37.0619" fill="url(#paint2_linear_1_7167)"/>
<path d="M93.7858 34.1801L94.0907 33.2278L93.3316 35.0711L93.7858 34.1801ZM101.776 36.4624L101.516 37.4282L102.281 35.5998L101.776 36.4624ZM99.6193 34.6939L100.132 33.835L98.872 35.3584L99.6193 34.6939ZM102.231 36.2513L101.718 37.1102L103.077 35.7184L102.231 36.2513ZM96.7895 25.3704L97.6447 24.852L95.8743 25.7732L96.7895 25.3704ZM103.149 35.8612L102.294 36.3796L104.021 39.2276L104.149 35.8996L103.149 35.8612ZM105.715 29.4469L106.669 29.748L104.769 29.1229L105.715 29.4469ZM103.758 35.6438L102.805 35.3427L104.474 36.3429L103.758 35.6438ZM105.796 33.5597L106.685 34.0175L105.081 32.8606L105.796 33.5597ZM104.606 35.87L103.717 35.4122L105.301 36.5893L104.606 35.87ZM107.991 33.7437L107.55 32.8464L107.55 32.8464L107.991 33.7437ZM115.914 29.8474L116.547 30.6215L115.472 28.9501L115.914 29.8474ZM104.208 37.1907L103.786 36.284L101.489 37.3527L103.896 38.1411L104.208 37.1907ZM112.257 40.2089L112.058 41.189L112.647 39.2882L112.257 40.2089ZM105.584 38.857L105.783 37.8769L105.003 39.6706L105.584 38.857ZM107.551 40.2627L107.137 41.1731L108.133 39.4491L107.551 40.2627ZM104.403 38.8321L104.817 37.9217L103.604 39.433L104.403 38.8321ZM110.601 47.6963L109.883 48.3921L111.457 47.1791L110.601 47.6963ZM103.265 39.1056L104.065 38.5053L102.486 36.4018L102.269 39.0229L103.265 39.1056ZM101.195 45.3053L100.242 45.0016L102.099 45.7329L101.195 45.3053ZM102.723 38.6615L103.712 38.8044L103.999 36.8213L102.242 37.7846L102.723 38.6615ZM100.542 40.8348L99.6935 40.3057L101.34 41.4374L100.542 40.8348ZM102.188 38.1953L103.036 38.7244L101.582 37.3996L102.188 38.1953ZM99.7588 39.8115L100.259 40.6775L100.259 40.6774L99.7588 39.8115ZM96.0083 41.6831L96.4274 42.5911L96.4274 42.5911L96.0083 41.6831ZM92.9862 43.078L92.4488 42.2347L93.4052 43.986L92.9862 43.078ZM101.978 37.3485L102.516 38.1918L104.077 37.197L102.389 36.4367L101.978 37.3485ZM101.392 36.1518C98.9258 35.4157 96.5316 34.4575 94.24 33.2892L93.3316 35.0711C95.7312 36.2943 98.2379 37.2976 100.82 38.0683L101.392 36.1518ZM93.4808 35.1325C96.1454 35.9857 98.8448 36.7106 101.516 37.4282L102.035 35.4966C99.3559 34.777 96.7025 34.0641 94.0907 33.2278L93.4808 35.1325ZM102.281 35.5998C101.563 35.1786 100.917 34.6485 100.367 34.0294L98.872 35.3584C99.5622 36.1346 100.372 36.7982 101.27 37.325L102.281 35.5998ZM99.1071 35.5527C99.9775 36.0719 100.848 36.591 101.718 37.1102L102.743 35.3925C101.872 34.8733 101.002 34.3542 100.132 33.835L99.1071 35.5527ZM103.077 35.7184C100.962 32.36 99.3458 28.6959 97.7048 24.9675L95.8743 25.7732C97.5052 29.4788 99.1776 33.28 101.384 36.7842L103.077 35.7184ZM95.9344 25.8888C98.0543 29.3857 100.174 32.8827 102.294 36.3796L104.004 35.3428C101.885 31.8459 99.7646 28.3489 97.6447 24.852L95.9344 25.8888ZM104.149 35.8996C104.184 34.9726 104.548 34.0827 105.073 33.0669C105.566 32.1102 106.254 30.9611 106.662 29.7709L104.769 29.1229C104.425 30.1281 103.874 31.0273 103.295 32.1497C102.747 33.2128 102.203 34.4324 102.15 35.8228L104.149 35.8996ZM104.762 29.1458C104.11 31.2114 103.457 33.277 102.805 35.3427L104.712 35.945C105.364 33.8793 106.017 31.8137 106.669 29.748L104.762 29.1458ZM104.474 36.3429C105.153 35.6482 105.832 34.9535 106.511 34.2587L105.081 32.8606C104.402 33.5553 103.723 34.2501 103.043 34.9448L104.474 36.3429ZM104.907 33.1019L103.717 35.4122L105.495 36.3278L106.685 34.0175L104.907 33.1019ZM105.301 36.5893C106.134 35.7844 107.21 35.2426 108.433 34.6411L107.55 32.8464C106.374 33.4248 105.007 34.0924 103.912 35.1507L105.301 36.5893ZM108.433 34.6411C111.073 33.3423 113.714 32.0435 116.355 30.7448L115.472 28.9501C112.832 30.2488 110.191 31.5476 107.55 32.8464L108.433 34.6411ZM115.28 29.0734C111.773 31.9425 107.911 34.3649 103.786 36.284L104.629 38.0974C108.906 36.1082 112.909 33.5967 116.547 30.6215L115.28 29.0734ZM103.896 38.1411C106.594 39.0242 109.25 40.0203 111.867 41.1296L112.647 39.2882C109.979 38.157 107.27 37.1411 104.519 36.2404L103.896 38.1411ZM112.456 39.2288C110.231 38.7782 108.007 38.3276 105.783 37.8769L105.386 39.8371C107.61 40.2877 109.834 40.7384 112.058 41.189L112.456 39.2288ZM105.003 39.6706C105.658 40.1392 106.314 40.6078 106.97 41.0764L108.133 39.4491C107.477 38.9806 106.821 38.512 106.165 38.0434L105.003 39.6706ZM107.965 39.3523C106.916 38.8755 105.866 38.3986 104.817 37.9217L103.989 39.7425C105.039 40.2194 106.088 40.6963 107.137 41.1731L107.965 39.3523ZM103.604 39.433C105.771 42.3161 107.911 45.1783 109.745 48.2135L111.457 47.1791C109.562 44.0443 107.363 41.1045 105.202 38.2312L103.604 39.433ZM111.319 47.0005C108.723 44.3209 106.3 41.4835 104.065 38.5053L102.465 39.7059C104.751 42.7513 107.228 45.6524 109.883 48.3921L111.319 47.0005ZM102.269 39.0229C102.105 40.9957 101.241 42.8693 100.291 44.8777L102.099 45.7329C103.023 43.7802 104.063 41.582 104.262 39.1883L102.269 39.0229ZM102.148 45.609C102.856 43.388 103.379 41.1123 103.712 38.8044L101.733 38.5185C101.415 40.7173 100.917 42.8855 100.242 45.0016L102.148 45.609ZM102.242 37.7846C101.119 38.4006 100.346 39.4355 99.7441 40.2321L101.34 41.4374C101.987 40.5812 102.518 39.9144 103.203 39.5383L102.242 37.7846ZM101.391 41.3638C101.939 40.484 102.488 39.6042 103.036 38.7244L101.339 37.6663C100.791 38.5461 100.242 39.4259 99.6935 40.3057L101.391 41.3638ZM101.582 37.3996C100.842 37.9629 100.066 38.4793 99.2585 38.9456L100.259 40.6774C101.139 40.1689 101.986 39.6057 102.793 38.9911L101.582 37.3996ZM99.2586 38.9456C98.0937 39.6184 96.8648 40.1864 95.5893 40.7752L96.4274 42.5911C97.6891 42.0087 99.0017 41.4036 100.259 40.6775L99.2586 38.9456ZM95.5893 40.7752C94.5819 41.2401 93.5745 41.7051 92.5671 42.1701L93.4052 43.986C94.4126 43.521 95.42 43.056 96.4274 42.5911L95.5893 40.7752ZM93.5235 43.9214C96.5209 42.0115 99.5182 40.1017 102.516 38.1918L101.441 36.5051C98.4435 38.415 95.4461 40.3248 92.4488 42.2347L93.5235 43.9214ZM102.389 36.4367C101.975 36.2502 101.535 36.1265 101.085 36.0697L100.834 38.054C101.088 38.0859 101.335 38.1555 101.568 38.2603L102.389 36.4367Z" fill="white" mask="url(#path-35-outside-3_1_7167)"/>
<defs>
<linearGradient id="paint0_linear_1_7167" x1="62.0547" y1="54.2229" x2="36.0805" y2="69.219" gradientUnits="userSpaceOnUse">
<stop stop-color="#F37D1C"/>
<stop offset="0.480236" stop-color="#FFD503"/>
<stop offset="1" stop-color="#F37D1C"/>
</linearGradient>
<linearGradient id="paint1_linear_1_7167" x1="59.5205" y1="3.94531" x2="59.5205" y2="24.0351" gradientUnits="userSpaceOnUse">
<stop stop-color="#F37D1C"/>
<stop offset="0.480236" stop-color="#FFD503"/>
<stop offset="1" stop-color="#F37D1C"/>
</linearGradient>
<linearGradient id="paint2_linear_1_7167" x1="93.9864" y1="33.4772" x2="113.305" y2="38.9894" gradientUnits="userSpaceOnUse">
<stop stop-color="#F37D1C"/>
<stop offset="0.480236" stop-color="#FFD503"/>
<stop offset="1" stop-color="#F37D1C"/>
</linearGradient>
</defs>
</svg>
